<?xml version="1.0" encoding="utf-8"?>
<!-- Generator: Adobe Illustrator 16.0.0, SVG Export Plug-In . SVG Version: 6.00 Build 0)  -->
<!DOCTYPE svg PUBLIC "-//W3C//DTD SVG 1.1//EN" "http://www.w3.org/Graphics/SVG/1.1/DTD/svg11.dtd">
<svg version="1.1" id="Layer_1" xmlns="http://www.w3.org/2000/svg" xmlns:xlink="http://www.w3.org/1999/xlink" x="0px" y="0px"
	 width="24px" height="24px" viewBox="0 0 48 48" enable-background="new 0 0 48 48" xml:space="preserve">
<g>
	<path fill="#FFFFFF" d="M47.745,16.383L45.298,4.288c-0.101-0.771-0.814-1.485-1.585-1.585L31.616,0.255
		c-0.771-0.101-1.853,0.268-2.402,0.817L11.288,18.999L15.29,23L32.152,6.136l8.077,1.634l1.635,8.078l-3.15,3.15l4,4.001
		l4.215-4.213C47.478,18.236,47.846,17.155,47.745,16.383z"/>
	<path fill="#FFFFFF" d="M32.711,25.001L15.848,41.864l-8.076-1.635l-1.635-8.077l3.15-3.151L5.286,25l-4.213,4.214
		c-0.551,0.551-0.918,1.631-0.818,2.402l2.447,12.097c0.102,0.771,0.814,1.485,1.586,1.585l12.096,2.447
		c0.771,0.102,1.852-0.268,2.402-0.816v-0.001l17.927-17.927L32.711,25.001z"/>
</g>
<g>
	<path fill="#FFFFFF" d="M46.929,29.214L29.002,11.287L25,15.289l1.384,1.384l0.978-0.75c0.289-0.213,0.563-0.311,0.855-0.311
		c0.463,0,0.894,0.263,1.106,0.673c0.235,0.442,0.174,0.97-0.168,1.416l-0.769,0.975l13.478,13.478l-1.635,8.077l-8.077,1.635
		l-3.15-3.15l-4.002,4l4.214,4.215c0.55,0.549,1.631,0.918,2.403,0.816l12.096-2.447c0.771-0.1,1.484-0.814,1.585-1.585
		l2.448-12.096C47.846,30.846,47.478,29.765,46.929,29.214z"/>
	<path fill="#FFFFFF" d="M19.317,32.272c-0.224-0.09-0.489-0.267-0.647-0.576c-0.115-0.23-0.314-0.813,0.211-1.443l0.73-0.93
		L6.137,15.848L7.77,7.771l8.078-1.635l3.15,3.15l4-4.001l-4.213-4.213c-0.549-0.55-1.631-0.918-2.402-0.817L4.287,2.702
		C3.516,2.803,2.803,3.516,2.701,4.288L0.254,16.383c-0.1,0.771,0.268,1.852,0.817,2.402l0.001,0l17.926,17.926l4-4l-1.391-1.393
		l-0.972,0.746C20.016,32.562,19.317,32.272,19.317,32.272z"/>
</g>
<path fill="#FFFFFF" d="M20.081,31.362l6.436-4.938c0.305-0.231,0.212-0.733,0.125-0.879l-2.219-3.206
	c-0.01-0.02-0.014-0.072,0-0.088l4.012-5.087c0.06-0.078,0.188-0.262,0.085-0.45c-0.13-0.263-0.424-0.209-0.617-0.067l-6.433,4.94
	c-0.271,0.204-0.332,0.609-0.138,0.881l2.229,3.214c0.012,0.015,0.012,0.064,0,0.081l-3.99,5.068
	c-0.161,0.189-0.222,0.582,0.119,0.631C19.69,31.464,19.866,31.509,20.081,31.362z"/>
</svg>
