<?xml version="1.0" encoding="utf-8"?>
<!-- Generator: Adobe Illustrator 16.0.0, SVG Export Plug-In . SVG Version: 6.00 Build 0)  -->
<!DOCTYPE svg PUBLIC "-//W3C//DTD SVG 1.1//EN" "http://www.w3.org/Graphics/SVG/1.1/DTD/svg11.dtd">
<svg version="1.1" id="Layer_1" xmlns="http://www.w3.org/2000/svg" xmlns:xlink="http://www.w3.org/1999/xlink" x="0px" y="0px"
	 width="24px" height="24px" viewBox="0 0 48 48" enable-background="new 0 0 48 48" xml:space="preserve">
<g>
	<path fill="#FFFFFF" d="M45.298,4.289c-0.101-0.774-0.796-1.483-1.584-1.586L31.613,0.255c-0.088-0.012-0.179-0.018-0.272-0.018
		c-0.749,0-1.644,0.351-2.127,0.835L11.287,18.999L15.289,23L31.963,6.327c0.095-0.095,0.223-0.146,0.354-0.146
		c0.033,0,0.066,0.003,0.1,0.01l7.489,1.515c0.196,0.04,0.351,0.194,0.391,0.391l1.516,7.49c0.033,0.164-0.019,0.334-0.137,0.453
		l-2.961,2.96l4,4.002l4.215-4.214c0.552-0.553,0.915-1.646,0.816-2.403L45.298,4.289z M46.222,18.081l-3.508,3.506l-2.586-2.588
		l2.443-2.443c0.238-0.239,0.34-0.577,0.273-0.905L41.21,7.573c-0.08-0.395-0.387-0.702-0.781-0.782l-8.077-1.635
		c-0.033-0.006-0.164-0.019-0.197-0.019c-0.27,0-0.521,0.104-0.71,0.293L15.289,21.586l-2.588-2.587L29.921,1.78
		c0.294-0.293,0.947-0.541,1.428-0.541c0.05,0,0.099,0.002,0.12,0.004L43.55,3.688c0.362,0.049,0.717,0.417,0.762,0.764
		l2.447,12.095C46.813,16.975,46.551,17.75,46.222,18.081z"/>
	<path fill="#FFFFFF" d="M32.711,25.001L16.037,41.675c-0.095,0.095-0.223,0.146-0.354,0.146c-0.033,0-0.066-0.003-0.1-0.01
		l-7.488-1.516c-0.196-0.04-0.351-0.194-0.391-0.391l-1.516-7.489c-0.033-0.165,0.019-0.335,0.137-0.453l2.961-2.962L5.285,25
		l-4.213,4.214c-0.552,0.552-0.916,1.645-0.818,2.402l2.447,12.097c0.103,0.774,0.798,1.483,1.585,1.585l12.095,2.447
		c0.087,0.011,0.177,0.017,0.271,0.017c0.752,0,1.648-0.351,2.133-0.834l17.928-17.927L32.711,25.001z M18.079,46.221
		c-0.294,0.293-0.948,0.541-1.428,0.541c-0.05,0-0.1-0.003-0.122-0.005L4.45,44.312c-0.362-0.048-0.717-0.417-0.763-0.765
		L1.24,31.452c-0.055-0.426,0.21-1.202,0.539-1.531l3.506-3.507l2.588,2.587L5.43,31.445c-0.237,0.237-0.34,0.576-0.273,0.905
		l1.635,8.078c0.081,0.395,0.387,0.7,0.781,0.781l8.076,1.635c0.064,0.013,0.132,0.021,0.2,0.021c0.266,0,0.517-0.104,0.706-0.294
		l16.156-16.156l2.588,2.586L18.079,46.221z"/>
	<g>
		<path fill="#FFFFFF" d="M46.929,29.214L29.002,11.288L25,15.29l1.384,1.384l0.978-0.75c0.289-0.213,0.563-0.311,0.855-0.311
			c0.463,0,0.894,0.263,1.106,0.673c0.235,0.442,0.174,0.97-0.168,1.416l-0.769,0.975l13.478,13.477l-1.635,8.077l-8.077,1.635
			l-3.15-3.15l-4.002,4l4.214,4.215c0.55,0.549,1.631,0.918,2.403,0.816l12.096-2.447c0.771-0.1,1.484-0.814,1.585-1.585
			l2.448-12.096C47.846,30.846,47.478,29.765,46.929,29.214z"/>
		<path fill="#FFFFFF" d="M19.317,32.272c-0.224-0.09-0.489-0.267-0.647-0.576c-0.115-0.23-0.314-0.813,0.211-1.443l0.73-0.93
			L6.137,15.849L7.77,7.772l8.078-1.635l3.15,3.15l4-4.001l-4.213-4.213c-0.549-0.55-1.631-0.918-2.402-0.817L4.287,2.703
			C3.516,2.804,2.803,3.517,2.701,4.289L0.254,16.384c-0.1,0.771,0.268,1.852,0.817,2.402l0.001,0l17.926,17.925l4-4l-1.391-1.393
			l-0.972,0.746C20.016,32.562,19.317,32.272,19.317,32.272z"/>
	</g>
	<path fill="#FF00FF" d="M20.088,31.351l6.436-4.938c0.305-0.231,0.212-0.733,0.125-0.879l-2.219-3.206
		c-0.01-0.02-0.014-0.072,0-0.088l4.012-5.087c0.06-0.078,0.188-0.262,0.085-0.45c-0.13-0.263-0.424-0.209-0.617-0.067l-6.433,4.94
		c-0.271,0.204-0.332,0.61-0.138,0.881l2.229,3.214c0.012,0.015,0.012,0.064,0,0.081l-3.99,5.068
		c-0.161,0.189-0.222,0.582,0.119,0.631C19.697,31.452,19.873,31.497,20.088,31.351z"/>
</g>
</svg>
